<svg width="210" height="80" viewBox="0 0 210 80" fill="none" xmlns="http://www.w3.org/2000/svg">
<g style="mix-blend-mode:luminosity" opacity="0.5" clip-path="url(#clip0_5_1613)">
<path d="M164.496 9.48076C163.448 9.70364 162.59 10.7632 162.59 11.8356V68.3315C162.59 69.4036 163.448 70.4632 164.496 70.686L207.516 79.83C208.565 80.0529 209.423 79.3581 209.423 78.286V1.88076C209.423 0.808695 208.564 0.113909 207.516 0.336789L164.496 9.48076Z" fill="#FFC300"/>
<path d="M165.081 10.1366C164.033 10.3595 163.175 11.4191 163.175 12.4915V67.6756C163.175 68.7477 164.033 69.8073 165.081 70.0302L206.931 78.9258C207.98 79.1486 208.838 78.4538 208.838 77.3818V2.78505C208.838 1.71299 207.98 1.01821 206.931 1.24109L165.081 10.1366Z" fill="url(#paint0_linear_5_1613)"/>
<path d="M209.422 18.6885C204.735 8.5472 171.948 10.9083 162.59 11.7998V29.5352C162.59 53.9237 174.358 63.4618 180.267 63.7609C186.177 64.06 202.359 59.0723 202.359 59.0723C209.094 56.9139 209.423 42.5319 209.423 42.5319L209.422 18.6885Z" fill="#FFC300"/>
<path d="M198.431 57.2725V20.7486H188.149C187.672 21.6884 187.377 22.4703 186.885 23.0938C186.088 24.1027 185.207 24.8544 184.243 25.3475C183.278 25.8415 182.177 26.1441 180.94 26.2555C179.703 26.3685 178.245 26.4473 176.567 26.4915V34.9011H187.785V57.2728H176.567V66.7467H187.451V66.7523C183.118 66.753 209.423 66.7467 209.423 66.7467C209.423 66.7467 198.147 66.7467 198.147 66.7508V66.7467H209.423V57.2728L198.431 57.2725Z" fill="white"/>
<path d="M192.413 15.9536C192.413 16.4034 192.51 16.7424 192.702 16.9709C192.895 17.1994 193.255 17.3136 193.784 17.3136C194.012 17.3136 194.192 17.294 194.324 17.2548C194.456 17.2156 194.558 17.1639 194.63 17.0994C194.701 17.0353 194.753 16.9622 194.785 16.88C194.817 16.7978 194.844 16.7141 194.865 16.6282H196.321C196.293 16.7997 196.242 16.9905 196.171 17.2009C196.1 17.4117 195.971 17.6081 195.786 17.7899C195.6 17.972 195.339 18.1254 195.004 18.2503C194.668 18.3751 194.222 18.4377 193.666 18.4377C192.709 18.4377 192.015 18.1933 191.583 17.7043C191.151 17.2152 190.935 16.4819 190.935 15.5038C190.935 15.054 190.983 14.6471 191.079 14.2833C191.176 13.9194 191.333 13.6071 191.55 13.3463C191.768 13.0857 192.056 12.884 192.412 12.7412C192.769 12.5983 193.208 12.527 193.73 12.527C194.351 12.527 194.844 12.6306 195.207 12.8377C195.571 13.0447 195.846 13.3108 196.032 13.6355C196.218 13.9605 196.333 14.3262 196.38 14.7331C196.426 15.1399 196.439 15.5468 196.417 15.9536H192.412H192.413ZM193.495 12.0666L192.328 10.4174H193.591L194.18 12.0666H193.495ZM194.849 14.4439C194.824 14.2938 194.774 14.1603 194.699 14.0423C194.624 13.9247 194.515 13.8319 194.373 13.764C194.23 13.6965 194.037 13.6622 193.794 13.6622C193.494 13.6622 193.259 13.7015 193.087 13.7802C192.916 13.859 192.786 13.9586 192.696 14.08C192.607 14.2014 192.548 14.3352 192.519 14.4815C192.491 14.6278 192.466 14.7726 192.444 14.9152H194.886C194.887 14.7508 194.874 14.5936 194.849 14.4439Z" fill="white"/>
<path d="M200.294 13.812C200.123 13.812 199.963 13.8372 199.813 13.887C199.663 13.9371 199.534 14.0261 199.427 14.1547C199.306 14.3119 199.229 14.5011 199.197 14.7222C199.165 14.9435 199.149 15.1222 199.149 15.2576V18.2879H197.66V12.677H198.988V13.7264C199.038 13.5838 199.092 13.4409 199.149 13.298C199.206 13.1551 199.286 13.0269 199.39 12.9123C199.493 12.7984 199.631 12.7053 199.802 12.6341C199.974 12.5628 200.198 12.527 200.477 12.527C200.598 12.527 200.719 12.5323 200.841 12.5432C200.962 12.5537 201.083 12.5665 201.205 12.5808V13.8123L200.294 13.812Z" fill="white"/>
<path d="M203.531 15.9536C203.531 16.4034 203.628 16.7424 203.821 16.9709C204.013 17.1994 204.374 17.3136 204.902 17.3136C205.131 17.3136 205.311 17.294 205.443 17.2548C205.575 17.2155 205.677 17.1639 205.748 17.0994C205.82 17.0353 205.871 16.9622 205.903 16.88C205.936 16.7978 205.962 16.7141 205.984 16.6281H207.44C207.411 16.7997 207.361 16.9905 207.29 17.2009C207.219 17.4116 207.09 17.6081 206.905 17.7899C206.719 17.972 206.459 18.1254 206.123 18.2502C205.787 18.3751 205.341 18.4376 204.784 18.4376C203.828 18.4376 203.133 18.1933 202.702 17.7043C202.27 17.2152 202.054 16.4818 202.054 15.5038C202.054 15.054 202.102 14.6471 202.198 14.2832C202.295 13.9194 202.452 13.6071 202.67 13.3463C202.887 13.0857 203.175 12.884 203.532 12.7411C203.889 12.5983 204.328 12.527 204.849 12.527C205.47 12.527 205.962 12.6306 206.327 12.8376C206.691 13.0446 206.966 13.3108 207.151 13.6355C207.337 13.9604 207.452 14.3262 207.499 14.733C207.546 15.1399 207.558 15.5467 207.537 15.9536H203.532H203.531ZM205.967 14.4439C205.942 14.2938 205.892 14.1603 205.817 14.0423C205.742 13.9246 205.633 13.8319 205.49 13.764C205.348 13.6965 205.155 13.6622 204.912 13.6622C204.613 13.6622 204.377 13.7015 204.206 13.7802C204.035 13.859 203.904 13.9586 203.815 14.08C203.725 14.2014 203.667 14.3352 203.638 14.4815C203.61 14.6278 203.584 14.7726 203.563 14.9151H206.004C206.005 14.7508 205.992 14.5936 205.967 14.4439Z" fill="white"/>
<path opacity="0.5" d="M29.2055 79.6337C29.1535 79.5428 29.1146 79.3965 29.0885 79.1951C29.0623 78.9937 29.0396 78.7761 29.0203 78.542C29.0007 78.3082 28.9795 78.0807 28.9568 77.8596C28.9341 77.6386 28.8998 77.4634 28.8544 77.3336C28.8024 77.1842 28.7327 77.0656 28.6449 76.9778C28.5571 76.89 28.4597 76.8253 28.3526 76.7829C28.2455 76.7406 28.1316 76.7147 28.0114 76.7051C27.8913 76.6951 27.7692 76.6905 27.646 76.6905H25.453V79.634H24.5369V72.6357H27.9971C28.1596 72.6357 28.3625 72.6453 28.6063 72.6649C28.85 72.6846 29.0872 72.7543 29.3179 72.8744C29.5485 72.9946 29.745 73.1848 29.9075 73.4447C30.0699 73.7046 30.1512 74.0751 30.1512 74.556C30.1512 74.8421 30.1169 75.0839 30.0488 75.2819C29.9806 75.4802 29.8928 75.6458 29.7857 75.779C29.6787 75.9123 29.5601 76.0193 29.4299 76.1006C29.2998 76.1818 29.1731 76.2484 29.0499 76.3004C29.2578 76.3979 29.4153 76.5149 29.5227 76.6516C29.6298 76.7879 29.7079 76.9407 29.7565 77.1095C29.8053 77.2785 29.8377 77.459 29.8539 77.6505C29.8701 77.8422 29.8913 78.0452 29.9174 78.2597C29.937 78.4611 29.9548 78.6316 29.971 78.7714C29.9871 78.9112 30.0052 79.0329 30.0245 79.1368C30.0441 79.2408 30.0699 79.3317 30.1026 79.4098C30.135 79.4877 30.1808 79.5627 30.239 79.634L29.2055 79.6337ZM29.1523 73.9023C29.0776 73.7463 28.9621 73.6327 28.8061 73.5611C28.6502 73.4895 28.4569 73.4491 28.2262 73.4394C27.9955 73.4295 27.7241 73.4248 27.4125 73.4248H25.4533V75.9004H27.617C27.7795 75.9004 27.9566 75.8955 28.1481 75.8858C28.3398 75.8762 28.5185 75.8307 28.6841 75.7495C28.8497 75.6682 28.9879 75.5365 29.0984 75.3547C29.2089 75.173 29.264 74.9099 29.264 74.5653C29.2643 74.2796 29.2267 74.0582 29.1523 73.9023Z" fill="#808080"/>
<path opacity="0.5" d="M36.2915 79.6337L35.5314 77.5185H32.8509L32.1393 79.6337H31.2133L33.6985 72.6354H34.6635L37.2855 79.6337H36.2915ZM34.1667 73.6197L33.1239 76.758H35.2684L34.1667 73.6197Z" fill="#808080"/>
<path opacity="0.5" d="M44.3519 76.9193C44.3323 77.1954 44.2884 77.4634 44.2203 77.7233C44.1521 77.9832 44.0481 78.2285 43.9084 78.4592C43.7686 78.6898 43.5803 78.8928 43.3431 79.0684C43.1059 79.2439 42.8101 79.3818 42.4562 79.4827C42.102 79.5835 41.6715 79.6337 41.1647 79.6337H38.6501V72.6354H41.584C42.0192 72.6354 42.4108 72.6923 42.7585 72.806C43.1062 72.9196 43.4 73.1098 43.6407 73.3762C43.881 73.6427 44.0646 74 44.1913 74.4483C44.318 74.8969 44.3815 75.4522 44.3815 76.1152C44.3812 76.3751 44.3715 76.6432 44.3519 76.9193ZM43.4066 75.0674C43.3546 74.7328 43.2603 74.4436 43.1239 74.1999C42.9876 73.9562 42.7989 73.7663 42.5586 73.6296C42.3183 73.4933 42.0095 73.4248 41.6326 73.4248H39.5759V78.8439H41.3399C41.6908 78.8439 41.9996 78.8016 42.266 78.7172C42.5325 78.6329 42.7551 78.4881 42.9337 78.2836C43.1124 78.0788 43.2487 77.8027 43.3431 77.4553C43.4371 77.1076 43.4844 76.674 43.4844 76.1541C43.4844 75.7641 43.4586 75.4018 43.4066 75.0674Z" fill="#808080"/>
<path opacity="0.5" d="M46.2819 79.6337V72.6354H47.198V79.6337H46.2819Z" fill="#808080"/>
<path opacity="0.5" d="M54.893 78.8781C54.3439 79.4858 53.4717 79.7896 52.276 79.7896C51.6911 79.7896 51.1875 79.7068 50.7654 79.5412C50.3429 79.3756 49.9937 79.1353 49.7176 78.8199C49.4415 78.5049 49.2366 78.1214 49.1034 77.6697C48.9702 77.2181 48.9036 76.7063 48.9036 76.1345C48.9036 75.6212 48.9587 75.1421 49.0692 74.697C49.1797 74.2522 49.3696 73.8655 49.6394 73.5371C49.909 73.209 50.2648 72.9522 50.7068 72.767C51.1485 72.5818 51.7011 72.4893 52.3638 72.4893C52.9615 72.4893 53.4732 72.5722 53.8991 72.7378C54.3246 72.9034 54.6723 73.144 54.9419 73.459C55.2114 73.7743 55.4082 74.1575 55.5314 74.6092C55.6547 75.0609 55.7166 75.5692 55.7166 76.1345C55.7166 77.3563 55.4421 78.2708 54.893 78.8781ZM54.2206 73.9315C53.8275 73.4702 53.2021 73.2395 52.3445 73.2395C51.8766 73.2395 51.4819 73.3027 51.1604 73.4294C50.8388 73.5561 50.5789 73.7463 50.3806 73.9997C50.1823 74.2531 50.0394 74.565 49.9517 74.9354C49.8639 75.3058 49.82 75.7348 49.82 76.222C49.82 77.1511 50.0198 77.8531 50.4195 78.3272C50.8192 78.8016 51.4769 79.0388 52.3934 79.0388C53.251 79.0388 53.8682 78.7901 54.2452 78.2932C54.6219 77.7961 54.8105 77.0637 54.8105 76.0953C54.8102 75.1144 54.6138 74.3932 54.2206 73.9315Z" fill="#808080"/>
<path opacity="0.5" d="M59.1281 77.421V76.5634H61.6719V77.421H59.1281Z" fill="#808080"/>
<path d="M66.8568 73.3955V79.6333H65.9407V73.3955H63.6599V72.6354H69.1376V73.3955H66.8568Z" fill="#808080"/>
<path d="M70.6479 79.6336V72.6353H75.7455V73.4248H71.574V75.5203H75.4143V76.31H71.574V78.8442H75.8626V79.6336H70.6479ZM72.968 71.9241H72.529L73.0165 70.5205H73.9815L72.968 71.9241Z" fill="#808080"/>
<path d="M77.4803 79.6337V72.6354H78.4064V78.8439H82.0908V79.6333H77.4803V79.6337Z" fill="#808080"/>
<path d="M83.5526 79.6336V72.6353H88.6502V73.4248H84.4787V75.5203H88.319V76.31H84.4787V78.8442H88.7672V79.6336H83.5526ZM85.8723 71.9241H85.4337L85.9212 70.5205H86.8862L85.8723 71.9241Z" fill="#808080"/>
<path opacity="0.5" d="M91.993 77.421V76.5634H94.5369V77.421H91.993Z" fill="#808080"/>
<path opacity="0.5" d="M97.2074 79.6337V72.6354H98.1235V79.6337H97.2074Z" fill="#808080"/>
<path opacity="0.5" d="M104.664 79.6337L101.018 73.9512V79.6337H100.122V72.6354H101.096L104.79 78.4153V72.6354H105.687V79.6337H104.664Z" fill="#808080"/>
<path opacity="0.5" d="M110.2 73.3955V79.6333H109.284V73.3955H107.003V72.6354H112.48V73.3955H110.2Z" fill="#808080"/>
<path opacity="0.5" d="M113.991 79.6337V72.6354H119.088V73.4248H114.917V75.5204H118.757V76.3101H114.917V78.8442H119.205V79.6337H113.991Z" fill="#808080"/>
<path opacity="0.5" d="M125.492 79.6337C125.44 79.5428 125.401 79.3965 125.375 79.1951C125.349 78.9937 125.326 78.7761 125.307 78.542C125.287 78.3082 125.266 78.0807 125.244 77.8596C125.221 77.6386 125.187 77.4634 125.141 77.3336C125.089 77.1842 125.019 77.0656 124.932 76.9778C124.844 76.89 124.746 76.8253 124.639 76.7829C124.532 76.7406 124.418 76.7147 124.298 76.7051C124.178 76.6951 124.056 76.6905 123.933 76.6905H121.74V79.634H120.824V72.6357H124.284C124.446 72.6357 124.649 72.6453 124.893 72.6649C125.137 72.6846 125.374 72.7543 125.605 72.8744C125.835 72.9946 126.032 73.1848 126.194 73.4447C126.357 73.7046 126.438 74.0751 126.438 74.556C126.438 74.8421 126.404 75.0839 126.336 75.2819C126.267 75.4802 126.18 75.6458 126.072 75.779C125.965 75.9123 125.847 76.0193 125.717 76.1006C125.587 76.1818 125.46 76.2484 125.337 76.3004C125.545 76.3979 125.702 76.5149 125.809 76.6516C125.917 76.7879 125.995 76.9407 126.043 77.1095C126.092 77.2785 126.124 77.459 126.141 77.6505C126.157 77.8422 126.178 78.0452 126.204 78.2597C126.224 78.4611 126.242 78.6316 126.258 78.7714C126.274 78.9112 126.292 79.0329 126.311 79.1368C126.331 79.2408 126.357 79.3317 126.389 79.4098C126.421 79.4877 126.467 79.5627 126.525 79.634L125.492 79.6337ZM125.438 73.9023C125.364 73.7463 125.248 73.6327 125.092 73.5611C124.936 73.4895 124.743 73.4491 124.512 73.4394C124.282 73.4295 124.01 73.4248 123.698 73.4248H121.739V75.9004H123.903C124.065 75.9004 124.242 75.8955 124.434 75.8858C124.626 75.8762 124.804 75.8307 124.97 75.7495C125.136 75.6682 125.274 75.5365 125.384 75.3547C125.495 75.173 125.55 74.9099 125.55 74.5653C125.55 74.2796 125.513 74.0582 125.438 73.9023Z" fill="#808080"/>
<path opacity="0.5" d="M132.773 79.6337L129.128 73.9512V79.6337H128.231V72.6354H129.205L132.899 78.4153V72.6354H133.796V79.6337H132.773Z" fill="#808080"/>
<path opacity="0.5" d="M135.697 79.6337V72.6354H140.795V73.4248H136.623V75.5204H140.463V76.3101H136.623V78.8442H140.912V79.6337H135.697Z" fill="#808080"/>
<path opacity="0.5" d="M145.141 73.3955V79.6333H144.225V73.3955H141.944V72.6354H147.422V73.3955H145.141Z" fill="#808080"/>
<path d="M52.0821 34.3053C51.8406 34.8292 51.5284 35.2616 51.1461 35.6037C50.7635 35.9461 50.3256 36.2076 49.8325 36.3888C49.3391 36.5699 48.8361 36.7059 48.3228 36.7965C47.8095 36.8871 47.3111 36.9372 46.828 36.9475C46.3449 36.9575 45.9221 36.9624 45.5598 36.9624C44.9151 36.9624 44.216 36.922 43.4611 36.8417C42.7063 36.761 41.9965 36.5397 41.3326 36.1774C40.6683 35.8151 40.0993 35.2716 39.6267 34.5469C39.1533 33.8222 38.8871 32.8158 38.8264 31.5274H41.3326C41.4126 32.0709 41.5237 32.554 41.6647 32.9768C41.8054 33.3995 42.027 33.7466 42.329 34.0183C42.6309 34.2901 43.0434 34.4968 43.567 34.6375C44.0902 34.7785 44.7645 34.8488 45.59 34.8488C46.0731 34.8488 46.5662 34.8389 47.0695 34.8186C47.5726 34.7987 48.0255 34.7028 48.4283 34.5316C48.8308 34.361 49.1576 34.094 49.4095 33.7316C49.661 33.3693 49.7867 32.856 49.7867 32.1917C49.7867 31.769 49.7263 31.4322 49.6056 31.18C49.4848 30.9285 49.2532 30.7172 48.9111 30.5459C48.5687 30.3751 48.0856 30.2138 47.4617 30.0628C46.8376 29.9119 46.0323 29.736 45.0462 29.5346C44.0395 29.3335 43.1788 29.1221 42.4647 28.9005C41.75 28.6792 41.161 28.3975 40.6985 28.0551C40.2353 27.713 39.8932 27.2849 39.6719 26.7716C39.4502 26.2583 39.3397 25.5894 39.3397 24.7635C39.3397 23.6765 39.5558 22.8364 39.9888 22.2421C40.4214 21.6488 40.96 21.2056 41.6043 20.9136C42.2484 20.6219 42.9428 20.4454 43.6877 20.385C44.4323 20.3246 45.1168 20.2944 45.741 20.2944C47.7942 20.2944 49.2837 20.7072 50.2098 21.5324C51.1355 22.3579 51.6787 23.6264 51.8403 25.3369H49.2435C49.2031 24.9344 49.1477 24.5572 49.0773 24.2045C49.0063 23.8524 48.8557 23.5402 48.6244 23.2684C48.3928 22.9967 48.0404 22.7853 47.5676 22.6344C47.0944 22.4834 46.4354 22.4077 45.5897 22.4077C45.0462 22.4077 44.5481 22.4379 44.0952 22.4983C43.6423 22.5587 43.2498 22.6645 42.9176 22.8155C42.5855 22.9665 42.3287 23.1881 42.1475 23.4798C41.9663 23.7718 41.8758 24.1394 41.8758 24.5821C41.8758 25.0854 41.9916 25.4832 42.2231 25.7749C42.4544 26.0669 42.7713 26.3084 43.1744 26.4996C43.5766 26.691 44.065 26.8467 44.639 26.9674C45.2127 27.0882 45.8316 27.2196 46.4958 27.36C47.6028 27.5816 48.5338 27.8079 49.289 28.0392C50.0439 28.2708 50.6524 28.5631 51.1156 28.9148C51.5785 29.2672 51.9159 29.7151 52.1273 30.2586C52.3386 30.8021 52.4445 31.5069 52.4445 32.3723C52.4445 33.138 52.3237 33.7821 52.0821 34.3053Z" fill="#808080"/>
<path d="M58.2717 22.8616V32.705C58.2717 33.1278 58.2817 33.4599 58.3019 33.7015C58.3215 33.943 58.3822 34.1242 58.4831 34.245C58.5836 34.3657 58.7346 34.4411 58.936 34.4716C59.1371 34.5018 59.4288 34.517 59.8116 34.517C59.9928 34.517 60.1687 34.5123 60.3399 34.5021C60.5108 34.4921 60.6873 34.4769 60.8685 34.4566V36.54C60.2042 36.6004 59.5399 36.6306 58.8756 36.6306C58.0703 36.6306 57.4512 36.5251 57.0188 36.3134C56.5858 36.1021 56.2686 35.8204 56.0675 35.468C55.8661 35.1159 55.7503 34.7131 55.7204 34.2602C55.6902 33.8073 55.675 33.3394 55.675 32.8563V22.8616H53.4104V20.7178H55.675V15.9471H58.2717V20.7178H61.261V22.8616H58.2717Z" fill="#808080"/>
<path d="M63.3142 29.6856V27.0285H71.195V29.6856H63.3142Z" fill="#808080"/>
<path d="M88.5871 32.7352C88.305 33.7821 87.8776 34.6175 87.3039 35.2414C86.7302 35.8655 86.0155 36.3084 85.1601 36.5699C84.3041 36.8311 83.3033 36.9624 82.1559 36.9624C81.3304 36.9624 80.6509 36.8971 80.1176 36.7663C79.5841 36.6353 79.1365 36.4597 78.7741 36.2378C78.4118 36.0168 78.1251 35.75 77.9137 35.4378C77.7024 35.1259 77.5259 34.799 77.3852 34.4566V42.126L74.7885 42.0958V20.7178H77.2946V23.0126C77.4154 22.6502 77.5916 22.3081 77.8232 21.9859C78.0544 21.6641 78.3667 21.3774 78.7592 21.1252C79.1517 20.8737 79.6295 20.6723 80.1933 20.5214C80.7567 20.3704 81.4512 20.2947 82.2767 20.2947C83.5044 20.2947 84.5513 20.4712 85.4169 20.8233C86.282 21.1757 86.9765 21.7042 87.5004 22.4084C88.0236 23.1131 88.4062 23.9987 88.6478 25.0655C88.8893 26.1326 89.0101 27.3705 89.0101 28.7794C89.0098 30.3701 88.8688 31.6887 88.5871 32.7352ZM86.1864 26.047C86.0554 25.1915 85.8241 24.4971 85.492 23.9635C85.1598 23.4303 84.7218 23.0428 84.1787 22.8012C83.6351 22.5596 82.9506 22.4389 82.1254 22.4389C80.3741 22.4389 79.1259 22.9624 78.3813 24.009C77.6361 25.0558 77.2641 26.5052 77.2641 28.357C77.2641 29.3036 77.3345 30.174 77.4755 30.969C77.6162 31.7643 77.868 32.4485 78.2303 33.0222C78.5927 33.5959 79.0857 34.0442 79.7099 34.3657C80.3334 34.6879 81.1184 34.8488 82.065 34.8488C83.0916 34.8488 83.8963 34.6677 84.4806 34.3053C85.0643 33.943 85.4969 33.4854 85.779 32.9316C86.0607 32.3782 86.2319 31.769 86.2923 31.1047C86.3527 30.4404 86.3829 29.7964 86.3829 29.1723C86.3829 27.9445 86.3172 26.903 86.1864 26.047Z" fill="#808080"/>
<path d="M92.1798 17.8493V14.7091H94.7765V17.8493H92.1798ZM92.1798 36.5397V20.7178H94.7765V36.5397H92.1798Z" fill="#808080"/>
<path d="M112.304 28.9005C112.294 29.1019 112.289 29.3033 112.289 29.5044H100.393C100.393 30.0884 100.433 30.6922 100.514 31.3161C100.594 31.9402 100.79 32.5139 101.102 33.0371C101.414 33.5607 101.892 33.9934 102.537 34.3355C103.181 34.6782 104.076 34.8488 105.224 34.8488C105.989 34.8488 106.628 34.7838 107.141 34.6527C107.654 34.522 108.077 34.3308 108.409 34.079C108.741 33.8275 108.993 33.5103 109.164 33.1277C109.335 32.7455 109.471 32.3025 109.572 31.7992H112.018C111.977 32.4233 111.852 33.0424 111.64 33.656C111.429 34.2705 111.067 34.8236 110.553 35.3167C110.04 35.8101 109.346 36.2076 108.47 36.5095C107.594 36.8115 106.462 36.9624 105.073 36.9624C103.966 36.9624 102.954 36.8214 102.038 36.5397C101.122 36.258 100.342 35.8051 99.6983 35.181C99.0539 34.5575 98.5509 33.7419 98.1885 32.7352C97.8262 31.7291 97.645 30.4912 97.645 29.0213C97.645 27.411 97.806 26.0522 98.1281 24.945C98.45 23.8381 98.9384 22.9369 99.5927 22.2424C100.247 21.548 101.057 21.0496 102.024 20.748C102.99 20.446 104.117 20.295 105.405 20.295C105.707 20.295 106.089 20.3053 106.553 20.3252C107.016 20.3455 107.504 20.4308 108.017 20.5817C108.531 20.7327 109.044 20.9696 109.557 21.2915C110.071 21.6136 110.533 22.0719 110.946 22.6655C111.359 23.2594 111.691 24.0143 111.943 24.9301C112.194 25.8462 112.32 26.968 112.32 28.2966C112.32 28.498 112.314 28.6994 112.304 28.9005ZM109.406 25.3525C109.295 24.7386 109.078 24.2154 108.757 23.7824C108.434 23.3497 107.982 23.0122 107.398 22.7707C106.814 22.5291 106.059 22.4084 105.133 22.4084C104.167 22.4084 103.387 22.5494 102.793 22.8311C102.199 23.1131 101.736 23.4854 101.404 23.9483C101.072 24.4118 100.835 24.94 100.694 25.5336C100.553 26.1276 100.453 26.7464 100.392 27.3905H109.572C109.572 26.6462 109.516 25.967 109.406 25.3525Z" fill="#808080"/>
<path d="M123.159 22.8314C122.797 22.8314 122.329 22.8569 121.755 22.907C121.181 22.9575 120.623 23.1386 120.079 23.4505C119.536 23.7627 119.068 24.2505 118.675 24.9148C118.283 25.5791 118.086 26.5254 118.086 27.7531V36.5397H115.49V20.7178H118.026V23.7976C118.247 22.912 118.564 22.2328 118.977 21.7596C119.39 21.2868 119.827 20.9397 120.291 20.7178C120.754 20.4964 121.217 20.3707 121.68 20.3405C122.143 20.3103 122.545 20.295 122.888 20.295C123.049 20.295 123.27 20.3003 123.552 20.31C123.834 20.3206 124.096 20.3455 124.337 20.3856V22.8314H123.159Z" fill="#808080"/>
<path d="M133.908 22.8314C133.546 22.8314 133.078 22.8569 132.504 22.907C131.93 22.9575 131.372 23.1386 130.828 23.4505C130.285 23.7627 129.817 24.2505 129.424 24.9148C129.032 25.5791 128.835 26.5254 128.835 27.7531V36.5397H126.239V20.7178H128.775V23.7976C128.996 22.912 129.313 22.2328 129.726 21.7596C130.139 21.2868 130.576 20.9397 131.04 20.7178C131.503 20.4964 131.966 20.3707 132.429 20.3405C132.892 20.3103 133.294 20.295 133.637 20.295C133.798 20.295 134.019 20.3003 134.301 20.31C134.583 20.3206 134.844 20.3455 135.086 20.3856V22.8314H133.908Z" fill="#808080"/>
<path d="M150.892 28.9005C150.882 29.1019 150.877 29.3033 150.877 29.5044H138.98C138.98 30.0884 139.02 30.6922 139.101 31.3161C139.182 31.9402 139.378 32.5139 139.69 33.0371C140.002 33.5607 140.48 33.9934 141.124 34.3355C141.768 34.6782 142.664 34.8488 143.812 34.8488C144.576 34.8488 145.216 34.7838 145.729 34.6527C146.242 34.522 146.665 34.3308 146.997 34.079C147.329 33.8275 147.581 33.5103 147.752 33.1277C147.923 32.7455 148.058 32.3025 148.16 31.7992H150.605C150.565 32.4233 150.439 33.0424 150.228 33.656C150.017 34.2705 149.654 34.8236 149.141 35.3167C148.628 35.8101 147.933 36.2076 147.058 36.5095C146.182 36.8115 145.05 36.9624 143.661 36.9624C142.553 36.9624 141.542 36.8214 140.626 36.5397C139.71 36.258 138.93 35.8051 138.286 35.181C137.642 34.5575 137.139 33.7419 136.776 32.7352C136.414 31.7291 136.233 30.4912 136.233 29.0213C136.233 27.411 136.394 26.0522 136.716 24.945C137.038 23.8381 137.526 22.9369 138.18 22.2424C138.834 21.548 139.645 21.0496 140.611 20.748C141.578 20.446 142.705 20.295 143.993 20.295C144.295 20.295 144.677 20.3053 145.14 20.3252C145.603 20.3455 146.092 20.4308 146.605 20.5817C147.118 20.7327 147.632 20.9696 148.145 21.2915C148.658 21.6136 149.121 22.0719 149.534 22.6655C149.946 23.2594 150.279 24.0143 150.53 24.9301C150.782 25.8462 150.908 26.968 150.908 28.2966C150.907 28.498 150.902 28.6994 150.892 28.9005ZM147.993 25.3525C147.883 24.7386 147.666 24.2154 147.344 23.7824C147.022 23.3497 146.569 23.0122 145.986 22.7707C145.402 22.5291 144.647 22.4084 143.721 22.4084C142.755 22.4084 141.974 22.5494 141.381 22.8311C140.787 23.1131 140.324 23.4854 139.992 23.9483C139.66 24.4118 139.423 24.94 139.282 25.5336C139.141 26.1276 139.041 26.7464 138.98 27.3905H148.159C148.159 26.6462 148.104 25.967 147.993 25.3525Z" fill="#808080"/>
<path d="M14.6873 53.8032C14.677 54.0046 14.6723 54.206 14.6723 54.4071H2.77566C2.77566 54.9911 2.8155 55.595 2.89644 56.2188C2.97675 56.8429 3.17286 57.4166 3.48539 57.9399C3.79729 58.4634 4.27511 58.8961 4.91947 59.2382C5.56352 59.5809 6.45939 59.7515 7.60679 59.7515C8.37161 59.7515 9.01068 59.6865 9.52398 59.5554C10.0373 59.4247 10.46 59.2336 10.7922 58.9817C11.1243 58.7302 11.3758 58.413 11.547 58.0304C11.7179 57.6482 11.8536 57.2052 11.9548 56.7019H14.4006C14.3601 57.326 14.2346 57.9451 14.0233 58.5587C13.8119 59.1732 13.4496 59.7263 12.9363 60.2194C12.423 60.7128 11.7285 61.1103 10.8529 61.4122C9.97721 61.7142 8.84507 61.8652 7.45581 61.8652C6.34858 61.8652 5.3369 61.7241 4.42111 61.4424C3.505 61.1607 2.72523 60.7078 2.08118 60.0837C1.43683 59.4602 0.933791 58.6446 0.571456 57.6379C0.209121 56.6318 0.0279541 55.3939 0.0279541 53.924C0.0279541 52.3137 0.188888 50.955 0.511067 49.8477C0.832935 48.7408 1.32134 47.8396 1.97566 47.1451C2.62967 46.4507 3.44025 45.9523 4.40648 45.6507C5.3727 45.3487 6.49986 45.1978 7.78827 45.1978C8.09021 45.1978 8.47216 45.208 8.93566 45.2279C9.39854 45.2482 9.88694 45.3335 10.4002 45.4844C10.9136 45.6354 11.4269 45.8723 11.9402 46.1942C12.4535 46.5164 12.9164 46.9746 13.3291 47.5682C13.7416 48.1621 14.0737 48.917 14.3255 49.8328C14.5771 50.7489 14.7028 51.8708 14.7028 53.1993C14.7025 53.4007 14.6972 53.6021 14.6873 53.8032ZM11.7886 50.2552C11.6778 49.6413 11.4611 49.1181 11.1395 48.6851C10.8174 48.2524 10.3645 47.915 9.78079 47.6734C9.19683 47.4318 8.44196 47.3111 7.5162 47.3111C6.54998 47.3111 5.76959 47.4521 5.17597 47.7338C4.58204 48.0158 4.11916 48.3881 3.78702 48.851C3.45488 49.3145 3.21799 49.8427 3.07729 50.4364C2.93628 51.0303 2.83574 51.6491 2.77535 52.2932H11.9545C11.9545 51.5489 11.8991 50.8697 11.7886 50.2552Z" fill="#808080"/>
<path d="M21.1337 47.7643V57.6078C21.1337 58.0305 21.1436 58.3626 21.1639 58.6042C21.1835 58.8458 21.2442 59.0269 21.345 59.1477C21.4456 59.2685 21.5965 59.3438 21.7979 59.3743C21.999 59.4045 22.2907 59.4198 22.6736 59.4198C22.8548 59.4198 23.0306 59.4151 23.2018 59.4048C23.3727 59.3949 23.5492 59.3796 23.7304 59.3594V61.4428C23.0661 61.5032 22.4018 61.5334 21.7376 61.5334C20.9323 61.5334 20.3131 61.4278 19.8807 61.2162C19.4477 61.0048 19.1305 60.7231 18.9295 60.3707C18.7281 60.0187 18.6123 59.6159 18.5824 59.1629C18.5522 58.71 18.5369 58.2422 18.5369 57.7591V47.7647H16.2723V45.6208H18.5369V40.8498H21.1337V45.6205H24.1229V47.7643H21.1337Z" fill="#808080"/>
<path d="M51.2071 61.4425V51.1461C51.2071 50.4215 51.1666 49.8176 51.0863 49.3345C51.0057 48.8513 50.8647 48.4588 50.6636 48.1569C50.4622 47.8549 50.1805 47.6389 49.8182 47.5078C49.4558 47.3771 48.9926 47.3117 48.4292 47.3117C47.3017 47.3117 46.3959 47.6392 45.7117 48.2929C45.0272 48.9475 44.6851 49.8985 44.6851 51.1464V61.4428H42.0884V50.6633C42.0884 50.2811 42.0781 49.8932 42.0582 49.501C42.0379 49.1085 41.9473 48.7511 41.7864 48.4289C41.6249 48.1071 41.3637 47.84 41.0014 47.6289C40.639 47.4176 40.1257 47.3117 39.4614 47.3117C38.9179 47.3117 38.4046 47.4173 37.9215 47.6289C37.4384 47.8403 37.0256 48.1376 36.6835 48.5195C36.3411 48.9021 36.0694 49.355 35.8683 49.8783C35.6669 50.4019 35.5663 50.9756 35.5663 51.5994V61.4428H32.9696V45.6208H35.3852V48.0666C35.5259 47.7447 35.707 47.4126 35.9287 47.0702C36.1497 46.7281 36.442 46.4162 36.8043 46.1341C37.1666 45.8524 37.6143 45.6261 38.1478 45.4549C38.6807 45.284 39.3301 45.1981 40.0952 45.1981C40.9407 45.1981 41.6149 45.299 42.1182 45.5001C42.6213 45.7015 43.0138 45.9583 43.2958 46.2699C43.5775 46.5821 43.7737 46.9142 43.8848 47.2663C43.995 47.6187 44.0706 47.9458 44.1111 48.2475C44.1914 47.9256 44.3122 47.5832 44.4734 47.2208C44.6344 46.8585 44.8909 46.5264 45.2435 46.2244C45.5956 45.9225 46.0635 45.6762 46.6477 45.4848C47.2314 45.2937 47.9763 45.1981 48.8821 45.1981C49.9087 45.1981 50.7436 45.3189 51.3883 45.5605C52.032 45.802 52.5357 46.1597 52.898 46.6322C53.2603 47.1057 53.5019 47.6943 53.6227 48.3987C53.7435 49.1035 53.8038 49.9085 53.8038 50.8143V61.4428L51.2071 61.4425Z" fill="#808080"/>
<path d="M57.4265 42.752V39.6118H60.0232V42.752H57.4265ZM57.4265 61.4424V45.6205H60.0232V61.4424H57.4265Z" fill="#808080"/>
<path d="M74.5164 67.0284V59.2986C74.3956 59.6006 74.234 59.9025 74.0333 60.2044C73.8319 60.5064 73.5502 60.7781 73.1878 61.0197C72.8255 61.2613 72.3623 61.462 71.7989 61.6236C71.2351 61.7845 70.5204 61.8651 69.6551 61.8651C68.5077 61.8651 67.5112 61.7188 66.6658 61.4275C65.8204 61.1358 65.1156 60.6726 64.5522 60.0385C63.9884 59.4044 63.571 58.5743 63.2993 57.5476C63.0275 56.521 62.8915 55.2634 62.8915 53.7733C62.8915 52.3844 63.0123 51.2068 63.2538 50.2406C63.4954 49.2743 63.8172 48.474 64.22 47.8399C64.6225 47.2058 65.0754 46.7128 65.5788 46.3604C66.0818 46.0086 66.5951 45.7465 67.1187 45.5753C67.642 45.4048 68.1453 45.2989 68.6284 45.2581C69.1116 45.2183 69.5343 45.1978 69.8966 45.1978C70.7218 45.1978 71.4011 45.2784 71.9346 45.4393C72.4678 45.6009 72.9108 45.8016 73.2632 46.0432C73.6152 46.2848 73.9019 46.5618 74.1239 46.8734C74.3452 47.1856 74.5466 47.4925 74.7277 47.7942V45.6202H77.1131V67.0281L74.5164 67.0284ZM74.5164 51.3425C74.4152 50.6281 74.2042 49.9738 73.8823 49.3799C73.5601 48.7862 73.1019 48.2929 72.5083 47.9003C71.9144 47.5078 71.124 47.3114 70.1379 47.3114C69.2118 47.3114 68.4516 47.4374 67.8583 47.6886C67.2644 47.9408 66.7962 48.333 66.4541 48.8662C66.1117 49.3998 65.8754 50.0843 65.7447 50.9195C65.6137 51.7553 65.5486 52.7464 65.5486 53.8938C65.5486 54.7797 65.6037 55.58 65.7145 56.2941C65.825 57.0088 66.0317 57.6227 66.3337 58.136C66.6356 58.6493 67.0583 59.0471 67.6018 59.3288C68.1453 59.6108 68.8498 59.7515 69.7154 59.7515C70.7421 59.7515 71.5772 59.5704 72.2216 59.208C72.8656 58.8457 73.369 58.3679 73.7313 57.7739C74.0937 57.1803 74.3402 56.5011 74.4712 55.736C74.6017 54.9711 74.6674 54.1761 74.6674 53.3506C74.6674 52.7265 74.6169 52.0569 74.5164 51.3425Z" fill="#808080"/>
<path d="M90.8815 61.4425V59.0269C90.7404 59.3693 90.5643 59.7061 90.3532 60.0383C90.1418 60.3704 89.8499 60.6724 89.4776 60.9441C89.1046 61.2159 88.6321 61.4375 88.0584 61.6084C87.4847 61.779 86.7548 61.8649 85.8692 61.8649C84.5605 61.8649 83.5442 61.6837 82.8195 61.3214C82.0948 60.959 81.556 60.5061 81.2043 59.9626C80.8519 59.4191 80.6352 58.8408 80.5552 58.2263C80.4746 57.6124 80.4344 57.044 80.4344 56.5204V45.6202H83.0312V55.4636C83.0312 56.1279 83.0564 56.7218 83.1068 57.2451C83.1569 57.7687 83.2827 58.2166 83.4841 58.5886C83.6852 58.9612 83.9974 59.2482 84.4201 59.4493C84.8429 59.6507 85.4166 59.7513 86.1412 59.7513C87.208 59.7513 88.0481 59.5956 88.6626 59.2834C89.2765 58.9715 89.7344 58.579 90.0366 58.1058C90.3386 57.633 90.5294 57.1197 90.6103 56.5659C90.6906 56.0124 90.7311 55.5044 90.7311 55.0412V45.6205H93.3278V61.4425H90.8815Z" fill="#808080"/>
<path d="M110.704 53.8032C110.693 54.0046 110.689 54.206 110.689 54.4071H98.7921C98.7921 54.9911 98.832 55.595 98.9129 56.2188C98.9932 56.8429 99.1893 57.4166 99.5019 57.9399C99.8138 58.4634 100.292 58.8961 100.936 59.2382C101.58 59.5809 102.476 59.7515 103.623 59.7515C104.388 59.7515 105.027 59.6865 105.54 59.5554C106.054 59.4247 106.476 59.2336 106.809 58.9817C107.141 58.7302 107.392 58.413 107.564 58.0304C107.734 57.6482 107.87 57.2052 107.971 56.7019H110.417C110.377 57.326 110.251 57.9451 110.04 58.5587C109.828 59.1732 109.466 59.7263 108.953 60.2194C108.439 60.7128 107.745 61.1103 106.869 61.4122C105.994 61.7142 104.862 61.8652 103.472 61.8652C102.365 61.8652 101.353 61.7241 100.438 61.4424C99.5215 61.1607 98.7417 60.7078 98.0977 60.0837C97.4533 59.4602 96.9503 58.6446 96.5879 57.6379C96.2256 56.6318 96.0444 55.3939 96.0444 53.924C96.0444 52.3137 96.2054 50.955 96.5275 49.8477C96.8494 48.7408 97.3378 47.8396 97.9921 47.1451C98.6461 46.4507 99.4567 45.9523 100.423 45.6507C101.389 45.3487 102.516 45.1978 103.805 45.1978C104.107 45.1978 104.489 45.208 104.952 45.2279C105.415 45.2482 105.903 45.3335 106.417 45.4844C106.93 45.6354 107.443 45.8723 107.957 46.1942C108.47 46.5164 108.933 46.9746 109.346 47.5682C109.758 48.1621 110.09 48.917 110.342 49.8328C110.594 50.7489 110.719 51.8708 110.719 53.1993C110.719 53.4007 110.714 53.6021 110.704 53.8032ZM107.805 50.2552C107.694 49.6413 107.478 49.1181 107.156 48.6851C106.834 48.2524 106.381 47.915 105.797 47.6734C105.213 47.4318 104.458 47.3111 103.533 47.3111C102.566 47.3111 101.786 47.4521 101.192 47.7338C100.599 48.0158 100.136 48.3881 99.8035 48.851C99.4714 49.3145 99.2345 49.8427 99.0938 50.4364C98.9528 51.0303 98.8522 51.6491 98.7918 52.2932H107.971C107.971 51.5489 107.916 50.8697 107.805 50.2552Z" fill="#808080"/>
<path d="M114.191 61.4424V39.6118H116.788V61.4424H114.191Z" fill="#808080"/>
<path d="M134.587 56.7775C134.376 57.7739 133.988 58.6496 133.425 59.4044C132.861 60.1593 132.081 60.7585 131.084 61.2009C130.088 61.6432 128.805 61.8652 127.235 61.8652C125.826 61.8652 124.638 61.6787 123.672 61.3067C122.706 60.9347 121.925 60.3909 121.332 59.6762C120.738 58.9618 120.31 58.0862 120.048 57.0493C119.786 56.0127 119.656 54.8404 119.656 53.5315C119.656 50.7134 120.285 48.62 121.543 47.251C122.801 45.8823 124.799 45.1978 127.536 45.1978C128.925 45.1978 130.088 45.3939 131.024 45.7867C131.96 46.1792 132.715 46.743 133.289 47.4776C133.862 48.2125 134.275 49.0981 134.527 50.1347C134.778 51.1719 134.904 52.324 134.904 53.5918C134.904 54.7193 134.799 55.7808 134.587 56.7775ZM131.991 50.9195C131.84 50.1244 131.573 49.4602 131.191 48.9266C130.808 48.3937 130.3 47.9906 129.666 47.7188C129.032 47.4471 128.232 47.3111 127.265 47.3111C126.198 47.3111 125.343 47.4823 124.699 47.8244C124.054 48.1671 123.556 48.6297 123.204 49.2133C122.852 49.7973 122.615 50.4715 122.495 51.2364C122.374 52.0015 122.313 52.8171 122.313 53.6821C122.313 54.5276 122.384 55.3179 122.525 56.0525C122.665 56.7875 122.912 57.4265 123.264 57.9701C123.616 58.5136 124.095 58.9465 124.699 59.2684C125.303 59.5906 126.077 59.7515 127.024 59.7515C128.05 59.7515 128.9 59.6307 129.575 59.3892C130.249 59.1476 130.783 58.7806 131.175 58.2869C131.568 57.7942 131.84 57.1651 131.991 56.3996C132.142 55.6348 132.217 54.7389 132.217 53.7123C132.217 52.6458 132.141 51.7151 131.991 50.9195Z" fill="#808080"/>
<path d="M148.16 61.4424V51.3876C148.16 50.7837 148.134 50.2356 148.084 49.7419C148.034 49.2488 147.903 48.8261 147.692 48.4737C147.48 48.122 147.158 47.8502 146.725 47.6585C146.292 47.4673 145.703 47.3715 144.959 47.3715C144.355 47.3715 143.776 47.4424 143.223 47.5828C142.669 47.7238 142.181 47.9806 141.758 48.3529C141.335 48.7255 140.998 49.2286 140.746 49.8627C140.494 50.4967 140.369 51.2971 140.369 52.2633V61.4424H137.772V45.6205H140.369V48.0662C140.51 47.7643 140.686 47.4427 140.897 47.1C141.109 46.7579 141.4 46.446 141.773 46.164C142.145 45.8823 142.628 45.6507 143.222 45.4695C143.816 45.2883 144.556 45.1978 145.442 45.1978C146.73 45.1978 147.736 45.3743 148.461 45.7263C149.186 46.0787 149.714 46.5263 150.046 47.0698C150.378 47.6133 150.579 48.2072 150.65 48.8513C150.72 49.496 150.755 50.0999 150.755 50.663V61.4424H148.16Z" fill="#808080"/>
</g>
<defs>
<linearGradient id="paint0_linear_5_1613" x1="183.213" y1="3.30163" x2="189.966" y2="80.4916" gradientUnits="userSpaceOnUse">
<stop stop-color="#FFE7A6"/>
<stop offset="0.15" stop-color="#FFD342"/>
<stop offset="0.5" stop-color="#FFE499"/>
<stop offset="1" stop-color="#FFC300"/>
</linearGradient>
<clipPath id="clip0_5_1613">
<rect width="209.494" height="80" fill="white"/>
</clipPath>
</defs>
</svg>
