<svg width="290" height="55" viewBox="0 0 290 55" fill="none" xmlns="http://www.w3.org/2000/svg">
<g style="mix-blend-mode:luminosity" opacity="0.5" clip-path="url(#clip0_5_1679)">
<path d="M17.7765 54.0174C23.3882 54.0174 27.9862 52.2434 30.9912 49.347C33.2721 47.1023 34.5755 44.0611 34.5755 40.5493C34.5755 37.3633 33.4169 34.5393 31.2085 32.367C29.0362 30.1947 25.9226 28.6017 22.0125 27.8414L15.568 26.5743C12.8889 26.0674 11.3683 24.7278 11.3683 22.8814C11.3683 20.4557 13.7216 18.7902 17.4869 18.7902C19.8402 18.7902 21.8314 19.5505 23.171 20.8901C24.0037 21.7952 24.583 22.99 24.764 24.3296L34.0686 22.2297C33.8152 19.5505 32.548 17.1972 30.6292 15.2784C27.6242 12.2734 22.9176 10.3545 17.4145 10.3545C12.3096 10.3545 8.03743 12.02 5.10485 14.6991C2.60672 17.0524 1.15853 20.2384 1.15853 23.7503C1.15853 26.8639 2.17226 29.4344 4.16352 31.4619C6.19099 33.4894 9.08737 34.9738 12.9613 35.9151L19.3333 37.4357C22.5193 38.196 23.9313 39.3545 23.9313 41.4544C23.9313 44.0611 21.578 45.5455 17.7403 45.5455C14.9887 45.5455 12.7078 44.6404 11.2959 43.1198C10.2821 42.1061 9.70285 40.7665 9.63044 39.2821L0.0723877 41.382C0.325821 44.2422 1.6654 46.7403 3.65666 48.7678C6.87888 52.0262 11.9837 54.0174 17.7765 54.0174ZM88.4119 54.0174C94.603 54.0174 99.382 51.7728 102.64 48.5867C105.247 46.0886 106.84 43.156 107.673 40.1148L97.8976 36.8564C97.4631 38.377 96.6304 39.9338 95.2908 41.201C93.6978 42.7216 91.5256 43.8077 88.4119 43.8077C85.5518 43.8077 82.8726 42.7216 80.9538 40.8027C79.0349 38.7753 77.8402 35.8427 77.8402 32.186C77.8402 28.4207 78.9987 25.5605 80.9538 23.5693C82.8726 21.6504 85.4794 20.6367 88.3033 20.6367C91.3083 20.6367 93.4082 21.6504 94.9288 23.1348C96.196 24.402 96.9201 25.995 97.4269 27.588L107.383 24.2209C106.623 21.2884 105.03 18.3558 102.713 15.9301C99.3458 12.6716 94.4943 10.3183 88.0499 10.3183C82.1123 10.3183 76.754 12.563 72.9163 16.4369C69.0786 20.3832 66.7253 25.814 66.7253 32.186C66.7253 38.558 69.151 43.9887 73.0973 47.9351C76.9712 51.7728 82.402 54.0174 88.4119 54.0174ZM54.5967 54.0174C58.9413 54.0174 62.0549 52.6779 63.3945 51.5193V42.4681C62.3807 43.2284 60.3895 44.1336 57.7827 44.1336C55.9363 44.1336 54.5967 43.6991 53.583 42.794C52.7503 41.9613 52.3158 40.5131 52.3158 38.5942V0.289612H41.2734V11.5855H63.3583V22.3021H41.2734V41.3096C41.2734 45.1473 42.4319 48.2609 44.5318 50.4332C46.9213 52.7865 50.3246 54.0174 54.5967 54.0174Z" fill="#502C84"/>
<path d="M123.422 19.1885V24.402C124.436 26.538 126.282 28.0586 128.925 28.0586C132.111 28.0586 134.247 25.7053 134.247 21.759C134.247 17.8851 132.111 15.5318 128.925 15.5318C126.282 15.568 124.472 17.0162 123.422 19.1885ZM118.607 32.005V2.13605H123.422V13.8302C124.87 11.9837 127.042 11.0062 129.758 11.0062C135.297 11.0062 139.28 15.4232 139.28 21.759C139.28 28.1311 135.297 32.5842 129.758 32.5842C127.042 32.5842 124.906 31.5705 123.422 29.7241V32.005H118.607Z" fill="#7B858B"/>
<path d="M157.78 32.005V29.543C156.151 31.4981 153.798 32.6204 150.938 32.6204C146.34 32.6204 143.588 29.4344 143.588 24.6554V11.5855H148.512V23.4606C148.512 26.1398 149.743 28.0948 152.422 28.0948C154.522 28.0948 156.839 26.6466 157.744 24.583V11.5855H162.668V32.005H157.78Z" fill="#7B858B"/>
<path d="M167.012 25.7054H172.081C172.515 27.407 173.964 28.4207 176.389 28.4207C178.924 28.4207 180.444 27.5156 180.444 25.9588C180.444 24.4382 179.865 23.6779 176.063 23.5331C169.583 23.2434 167.555 21.1436 167.555 17.5231C167.555 13.4682 170.741 11.0786 176.136 11.0786C181.386 11.0786 184.354 13.5044 184.934 17.161H180.01C179.539 16.0749 178.489 15.206 176.1 15.206C173.819 15.206 172.371 16.0025 172.371 17.3059C172.371 18.6454 172.95 19.2247 176.643 19.3695C183.232 19.6592 185.296 21.7228 185.296 25.7416C185.296 30.0499 181.965 32.6205 176.425 32.6205C170.669 32.6205 167.41 29.7965 167.012 25.7054Z" fill="#7B858B"/>
<path d="M187.287 11.5855V15.9663H192.175V32.005H197.135V11.5855H187.287ZM192.211 7.78399H197.135V2.13605H192.211V7.78399Z" fill="#7B858B"/>
<path d="M202.529 32.005V11.5855H207.453V14.1198C209.119 12.1286 211.58 11.0062 214.477 11.0062C219.22 11.0062 222.08 14.1922 222.08 18.9351V32.005H217.156V20.166C217.156 17.4869 215.889 15.5318 212.992 15.5318C210.82 15.5318 208.394 16.98 207.453 19.0437V32.005H202.529Z" fill="#7B858B"/>
<path d="M231.565 19.1885H241.992C241.413 16.5818 239.711 15.3508 236.851 15.3508C234.027 15.387 232.217 16.7266 231.565 19.1885ZM236.996 32.6204C230.66 32.6204 226.316 28.1673 226.316 21.6504C226.316 15.5318 230.769 11.0062 236.851 11.0062C243.042 11.0062 247.242 15.0612 247.242 21.6866C247.242 22.0125 247.242 22.5917 247.17 23.0262H231.312C231.71 26.4294 233.629 28.2397 237.032 28.2397C239.458 28.2397 241.015 27.1897 241.848 26.176H247.097C245.939 29.7603 241.703 32.6204 236.996 32.6204Z" fill="#7B858B"/>
<path d="M250.392 25.7054H255.461C255.895 27.407 257.343 28.4207 259.769 28.4207C262.303 28.4207 263.824 27.5156 263.824 25.9588C263.824 24.4382 263.245 23.6779 259.443 23.5331C252.962 23.2434 250.935 21.1436 250.935 17.5231C250.935 13.4682 254.121 11.0786 259.515 11.0786C264.765 11.0786 267.734 13.5044 268.313 17.161H263.389C262.919 16.0749 261.869 15.206 259.479 15.206C257.198 15.206 255.75 16.0025 255.75 17.3059C255.75 18.6454 256.329 19.2247 260.022 19.3695C266.612 19.6592 268.675 21.7228 268.675 25.7416C268.675 30.0499 265.344 32.6205 259.805 32.6205C254.085 32.6205 250.79 29.7965 250.392 25.7054Z" fill="#7B858B"/>
<path d="M271.608 25.7054H276.676C277.111 27.407 278.559 28.4207 280.985 28.4207C283.519 28.4207 285.04 27.5156 285.04 25.9588C285.04 24.4382 284.46 23.6779 280.659 23.5331C274.178 23.2434 272.151 21.1436 272.151 17.5231C272.151 13.4682 275.337 11.0786 280.731 11.0786C285.981 11.0786 288.95 13.5044 289.529 17.161H284.569C284.098 16.0749 283.085 15.206 280.659 15.206C278.378 15.206 276.93 16.0025 276.93 17.3059C276.93 18.6454 277.509 19.2247 281.202 19.3695C287.791 19.6592 289.855 21.7228 289.855 25.7416C289.855 30.0499 286.524 32.6205 280.985 32.6205C275.264 32.6205 272.006 29.7965 271.608 25.7054Z" fill="#7B858B"/>
</g>
<defs>
<clipPath id="clip0_5_1679">
<rect width="290" height="54.3071" fill="white"/>
</clipPath>
</defs>
</svg>
