<svg width="327" height="80" viewBox="0 0 327 80" fill="none" xmlns="http://www.w3.org/2000/svg">
<g style="mix-blend-mode:luminosity">
<path d="M38.6909 45.8182C38.6909 44.5091 38.4 43.3454 37.9636 42.1818C37.5273 41.1636 36.9455 40.2909 36.2182 39.5636C35.4909 38.8363 34.7636 38.4 33.7455 38.1091C32.8727 37.8182 31.8545 37.6727 30.9818 37.6727C29.0909 37.6727 27.3455 38.4 25.8909 39.8545C24.4364 41.3091 23.7091 43.2 23.4182 45.8182H38.6909ZM23.4182 52.0727C23.5636 54.8363 24.4364 57.1636 25.8909 58.7636C27.3455 60.3636 29.2364 61.2363 31.7091 61.2363C33.3091 61.2363 34.7636 60.8 35.9273 60.2182C37.0909 59.4909 37.9636 58.4727 38.2545 57.1636H48.2909C47.1273 60.9454 45.0909 63.8545 42.3273 65.8909C39.4182 67.9272 36.0727 68.9454 32.1455 68.9454C19.7818 68.9454 13.6727 62.2545 13.6727 48.8727C13.6727 45.9636 14.1091 43.4909 14.8364 41.1636C15.7091 38.8363 16.8727 36.9454 18.3273 35.2C19.7818 33.6 21.6727 32.2909 23.8545 31.4182C26.0364 30.5454 28.6545 30.1091 31.4182 30.1091C37.0909 30.1091 41.4545 32 44.3636 35.6363C47.2727 39.2727 48.7273 44.8 48.7273 52.2182H23.4182V52.0727Z" fill="#424242"/>
<path d="M115.055 45.8182C115.055 44.5091 114.764 43.3454 114.327 42.1818C113.891 41.1636 113.309 40.2909 112.582 39.5636C111.855 38.8363 111.127 38.4 110.109 38.1091C109.236 37.8182 108.218 37.6727 107.345 37.6727C105.455 37.6727 103.709 38.4 102.255 39.8545C100.8 41.3091 100.073 43.2 99.7818 45.8182H115.055ZM99.6363 52.0727C99.7818 54.8363 100.655 57.1636 102.109 58.7636C103.564 60.3636 105.455 61.2363 107.927 61.2363C109.527 61.2363 110.982 60.8 112.145 60.2182C113.309 59.4909 114.182 58.4727 114.473 57.1636H124.509C123.345 60.9454 121.309 63.8545 118.545 65.8909C115.636 67.9272 112.291 68.9454 108.364 68.9454C96 68.9454 89.8909 62.2545 89.8909 48.8727C89.8909 45.9636 90.3272 43.4909 91.0545 41.1636C91.7818 38.8363 92.9454 36.9454 94.5454 35.2C96 33.6 97.8909 32.2909 100.073 31.4182C102.255 30.5454 104.873 30.1091 107.636 30.1091C113.309 30.1091 117.673 32 120.582 35.6363C123.491 39.2727 124.945 44.8 124.945 52.2182H99.6363V52.0727Z" fill="#424242"/>
<path d="M177.455 67.9273V30.9818H186.618V35.3455C187.346 34.0364 188.218 33.1637 189.091 32.4364C189.964 31.7091 190.836 31.1273 191.855 30.8364C192.727 30.4 193.746 30.2546 194.618 30.1091C195.636 29.9637 196.509 29.9637 197.527 29.9637H198.836V40C197.964 39.8546 197.091 39.7091 196.073 39.7091C190.109 39.7091 187.2 42.6182 187.2 48.5818V67.7818H177.455V67.9273Z" fill="#424242"/>
<path d="M217.309 60.6545C223.273 60.6545 226.182 56.8727 226.182 49.4545C226.182 42.0363 223.273 38.2545 217.309 38.2545C211.345 38.2545 208.436 42.0363 208.436 49.4545C208.436 57.0182 211.345 60.6545 217.309 60.6545ZM217.309 68.9454C214.255 68.9454 211.636 68.5091 209.309 67.4909C206.982 66.4727 204.945 65.1636 203.345 63.5636C201.745 61.8182 200.436 59.7818 199.709 57.4545C198.982 55.1273 198.4 52.3636 198.4 49.6C198.4 46.6909 198.836 44.0727 199.709 41.6C200.582 39.1273 201.891 37.0909 203.491 35.4909C205.091 33.7454 207.127 32.4363 209.455 31.5636C211.782 30.6909 214.4 30.1091 217.309 30.1091C220.218 30.1091 222.836 30.5454 225.164 31.5636C227.491 32.4363 229.382 33.7454 230.982 35.4909C232.582 37.2363 233.891 39.2727 234.764 41.6C235.636 44.0727 236.073 46.6909 236.073 49.6C236.073 52.5091 235.636 55.2727 234.764 57.6C233.891 59.9272 232.582 61.9636 230.982 63.7091C229.382 65.4545 227.345 66.7636 225.018 67.6363C222.691 68.3636 220.218 68.9454 217.309 68.9454Z" fill="#424242"/>
<path d="M262.982 67.9273V45.5273C262.982 42.6182 262.545 40.7273 261.527 39.7091C260.509 38.6909 258.909 38.2546 256.582 38.2546C251.491 38.2546 249.018 41.0182 249.018 46.6909V67.7818H239.273V30.9818H248.582V36.3637C249.745 34.1818 251.2 32.5818 253.091 31.5637C254.982 30.5455 257.455 29.9637 260.364 29.9637C262.109 29.9637 263.709 30.2546 265.164 30.6909C266.618 31.2727 267.927 32 268.945 33.0182C269.964 34.0364 270.836 35.3455 271.418 36.9455C272 38.5455 272.291 40.2909 272.291 42.1818V67.7818H262.982V67.9273Z" fill="#424242"/>
<path d="M300.945 45.8182C300.945 44.5091 300.655 43.3454 300.218 42.1818C299.782 41.1636 299.2 40.2909 298.473 39.5636C297.745 38.8363 297.018 38.4 296 38.1091C295.127 37.8182 294.109 37.6727 293.236 37.6727C291.345 37.6727 289.6 38.4 288.145 39.8545C286.691 41.3091 285.964 43.2 285.673 45.8182H300.945ZM285.527 52.0727C285.673 54.8363 286.545 57.1636 288 58.7636C289.455 60.3636 291.345 61.2363 293.818 61.2363C295.418 61.2363 296.873 60.8 298.036 60.2182C299.2 59.4909 300.073 58.4727 300.364 57.1636H310.4C309.236 60.9454 307.2 63.8545 304.436 65.8909C301.527 67.9272 298.182 68.9454 294.255 68.9454C281.891 68.9454 275.782 62.2545 275.782 48.8727C275.782 45.9636 276.218 43.4909 276.945 41.1636C277.818 38.8363 278.982 36.9454 280.436 35.2C281.891 33.6 283.782 32.2909 285.964 31.4182C288.145 30.5454 290.764 30.1091 293.527 30.1091C299.2 30.1091 303.564 32 306.473 35.6363C309.382 39.2727 310.836 44.8 310.836 52.2182H285.527V52.0727Z" fill="#424242"/>
<path d="M175.418 30.9818H163.491L151.418 45.0909V19.7818L143.855 12.2182H141.673V67.9273H151.418V56.1454L156.073 51.3454L164.218 67.9273H175.127L163.055 44.5091L175.418 30.9818Z" fill="#424242"/>
<path d="M135.709 12.2182L128 19.9273V67.9273H137.745V12.2182H135.709Z" fill="#424242"/>
<path d="M75.2 58.0364C73.6 59.9273 71.7091 60.9454 69.2364 60.9454C66.7637 60.9454 64.7273 59.9273 63.2727 57.8909C61.6727 55.8545 60.9455 53.0909 60.9455 49.8909C60.9455 42.3273 63.7091 38.5454 69.3818 38.5454C74.7637 38.5454 77.5273 42.6182 77.5273 50.6182C77.5273 53.5273 76.8 56 75.2 58.0364ZM84.6546 12.2182L77.0909 19.7818V35.7818C74.3273 32 70.6909 29.9636 66.1818 29.9636C63.7091 29.9636 61.6727 30.4 59.7818 31.4182C57.8909 32.2909 56.2909 33.6 54.9818 35.3454C53.6727 37.0909 52.6546 39.1273 52.0727 41.4545C51.3455 43.7818 51.0546 46.4 51.0546 49.1636C51.0546 52.2182 51.4909 54.9818 52.2182 57.4545C52.9455 59.9273 54.1091 61.9636 55.5637 63.7091C57.0182 65.4545 58.6182 66.7636 60.6546 67.6363C62.5455 68.5091 64.7273 68.9454 67.0546 68.9454C71.7091 68.9454 75.0546 67.0545 77.3818 63.4182L77.5273 67.9273H86.8364V12.2182H84.6546Z" fill="#424242"/>
<path d="M313.018 28.5091V29.6727H314.036C314.182 29.6727 314.473 29.6727 314.473 29.5273C314.618 29.3818 314.618 29.2364 314.618 29.0909C314.618 28.9455 314.618 28.8 314.473 28.6546C314.327 28.5091 314.182 28.5091 314.036 28.5091H313.018ZM314.618 31.8546V30.8364C314.618 30.6909 314.618 30.5455 314.473 30.4C314.327 30.2546 314.182 30.2546 314.036 30.2546H313.164V31.8546H312.291V27.7818H314.327C314.764 27.7818 315.055 27.9273 315.2 28.0727C315.491 28.3636 315.491 28.5091 315.491 28.9455C315.491 29.2364 315.491 29.3818 315.345 29.5273C315.2 29.6727 315.055 29.8182 314.909 29.8182C315.055 29.8182 315.2 29.9636 315.345 30.1091C315.345 30.2546 315.491 30.4 315.491 30.6909V31.8546H314.618ZM317.382 30.1091C317.382 29.6727 317.236 29.0909 317.091 28.6546C316.945 28.2182 316.655 27.7818 316.364 27.4909C316.073 27.2 315.636 26.9091 315.2 26.7636C314.764 26.6182 314.327 26.4727 313.745 26.4727C313.309 26.4727 312.727 26.6182 312.291 26.7636C311.855 26.9091 311.418 27.2 311.127 27.4909C310.836 27.7818 310.545 28.2182 310.4 28.6546C310.255 29.0909 310.109 29.5273 310.109 30.1091C310.109 30.6909 310.255 31.1273 310.4 31.5636C310.545 32 310.836 32.4364 311.127 32.7273C311.418 33.0182 311.855 33.3091 312.291 33.4546C312.727 33.6 313.164 33.7455 313.745 33.7455C314.182 33.7455 314.764 33.6 315.2 33.4546C315.636 33.3091 316.073 33.0182 316.364 32.7273C316.655 32.4364 316.945 32 317.091 31.5636C317.382 31.1273 317.382 30.5455 317.382 30.1091ZM318.109 30.1091C318.109 30.6909 317.964 31.2727 317.818 31.8546C317.527 32.4364 317.236 32.8727 316.8 33.3091C316.364 33.7455 315.927 34.0364 315.345 34.3273C314.764 34.6182 314.182 34.6182 313.6 34.6182C313.018 34.6182 312.436 34.4727 311.855 34.3273C311.273 34.0364 310.836 33.7455 310.4 33.3091C309.964 32.8727 309.673 32.4364 309.382 31.8546C309.091 31.2727 309.091 30.6909 309.091 30.1091C309.091 29.5273 309.236 28.9455 309.382 28.3636C309.673 27.7818 309.964 27.3455 310.4 26.9091C310.836 26.4727 311.273 26.1818 311.855 25.8909C312.436 25.6 313.018 25.6 313.6 25.6C314.182 25.6 314.764 25.7455 315.345 25.8909C315.927 26.1818 316.364 26.4727 316.8 26.9091C317.236 27.3455 317.527 27.7818 317.818 28.3636C317.964 28.9455 318.109 29.5273 318.109 30.1091Z" fill="#424242"/>
</g>
</svg>
