<svg width="142" height="80" viewBox="0 0 142 80" fill="none" xmlns="http://www.w3.org/2000/svg">
<g style="mix-blend-mode:luminosity" opacity="0.5" clip-path="url(#clip0_5_1584)">
<path d="M29.4055 76.8648C26.6379 78.8756 22.6595 79.9784 19.2649 79.9784C14.4433 79.9784 10.1622 78.2054 6.87572 75.2432C6.59464 75.0054 6.83248 74.6811 7.1568 74.8973C10.7028 76.9513 15.0487 78.1621 19.5892 78.1621C22.6163 78.1621 25.9676 77.5351 29.0595 76.2378C29.4271 76.0432 29.8379 76.5189 29.4055 76.8648Z" fill="#333F48"/>
<path d="M30.5514 75.5675C30.2055 75.1351 28.2163 75.373 27.3514 75.4594C27.0703 75.5027 27.0271 75.2648 27.2649 75.1135C28.8433 74.0108 31.4163 74.3351 31.719 74.6811C32.0433 75.027 31.6325 77.6432 30.1838 78.854C29.946 79.0486 29.7514 78.9405 29.8379 78.7027C30.1406 77.8594 30.8973 76 30.5514 75.5675Z" fill="#333F48"/>
<path d="M27.3947 67.2865V66.227C27.3947 66.0756 27.5028 65.9459 27.6757 65.9459H32.4974C32.6487 65.9459 32.7784 66.054 32.7784 66.227V67.1351C32.7784 67.2865 32.6703 67.4811 32.4325 67.8054L29.9028 71.3513C30.8109 71.3081 31.8055 71.4594 32.6703 71.9351C32.8649 72.0432 32.9082 72.2162 32.9082 72.3675V73.5135C32.9082 73.6648 32.7568 73.8594 32.5622 73.7513C31.0703 72.9729 29.1244 72.8865 27.4811 73.7513C27.3298 73.8378 27.1352 73.6648 27.1352 73.5135V72.4108C27.1352 72.2594 27.1352 71.9351 27.3298 71.654L30.2055 67.5027H27.6757C27.546 67.5675 27.3947 67.4378 27.3947 67.2865Z" fill="#333F48"/>
<path d="M9.8811 73.9892H8.43245C8.2811 73.9892 8.19461 73.8811 8.15137 73.7513V66.2487C8.15137 66.0973 8.25948 65.9676 8.43245 65.9676H9.81623C9.96758 65.9676 10.0973 66.0757 10.0973 66.2054V67.2H10.1406C10.4865 66.2486 11.1568 65.8162 12.0649 65.8162C12.973 65.8162 13.5568 66.2486 13.9676 67.2C14.3135 66.2486 15.1135 65.8162 15.9784 65.8162C16.6054 65.8162 17.2757 66.0541 17.6649 66.6378C18.1406 67.2649 18.0108 68.173 18.0108 68.9946V73.7297C18.0108 73.8811 17.9027 74.0108 17.7297 74.0108H16.2811C16.1297 74.0108 16 73.9027 16 73.7297V69.7513C16 69.427 16.0433 68.6487 15.9568 68.3243C15.8487 67.8054 15.5243 67.6973 15.0919 67.6973C14.746 67.6973 14.3784 67.9351 14.227 68.3243C14.0757 68.7135 14.1189 69.3405 14.1189 69.7513V73.7297C14.1189 73.8811 14.0108 74.0108 13.8379 74.0108H12.3243C12.173 74.0108 12.0433 73.9027 12.0433 73.7297V69.7513C12.0433 68.9297 12.1514 67.6973 11.1352 67.6973C10.0757 67.6973 10.1189 68.8865 10.1189 69.7513V73.7297C10.1622 73.8811 10.0324 73.9892 9.8811 73.9892Z" fill="#333F48"/>
<path d="M36.8865 65.7946C39.0487 65.7946 40.2379 67.654 40.2379 70.0108C40.2379 72.3027 38.9406 74.1189 36.8865 74.1189C34.7676 74.1189 33.6216 72.2595 33.6216 69.9459C33.6216 67.6324 34.7676 65.7946 36.8865 65.7946ZM36.8865 67.3297C35.827 67.3297 35.7406 68.7784 35.7406 69.6865C35.7406 70.5946 35.7406 72.5622 36.8865 72.5622C38.0325 72.5622 38.0757 70.9838 38.0757 70.0324C38.0757 69.4054 38.0325 68.6486 37.8379 68.0649C37.7081 67.5676 37.3622 67.3297 36.8865 67.3297Z" fill="#333F48"/>
<path d="M43.0487 73.9892H41.6C41.4487 73.9892 41.319 73.8811 41.319 73.7081V66.2054C41.319 66.0973 41.4271 65.9676 41.6 65.9676H42.9406C43.0487 65.9676 43.1784 66.0541 43.2217 66.1622V67.3081H43.2649C43.6541 66.2919 44.2595 65.8162 45.2757 65.8162C45.946 65.8162 46.573 66.0541 46.9622 66.6811C47.3514 67.2649 47.3514 68.3027 47.3514 69.0162V73.7513C47.3514 73.8595 47.2433 73.9892 47.0703 73.9892H45.6217C45.5136 73.9892 45.3838 73.8811 45.3406 73.7513V69.6865C45.3406 68.8649 45.4271 67.6757 44.4325 67.6757C44.0865 67.6757 43.7622 67.9135 43.6109 68.2595C43.4163 68.7351 43.373 69.1676 43.373 69.6865V73.7081C43.3082 73.8811 43.2001 73.9892 43.0487 73.9892Z" fill="#333F48"/>
<path d="M26.2054 72.4973C25.9243 72.1513 25.6432 71.827 25.6432 71.1567V68.8649C25.6432 67.8703 25.7297 67.0054 25.0162 66.3351C24.4541 65.8162 23.5243 65.6216 22.8108 65.6216C21.427 65.6216 19.8486 66.1405 19.5459 67.8703C19.5459 68.0649 19.6541 68.1513 19.7838 68.1946L21.2108 68.3459C21.3189 68.3459 21.4054 68.1946 21.4487 68.0649C21.5568 67.4811 22.0757 67.2 22.6378 67.2C22.9622 67.2 23.2649 67.3081 23.4595 67.5892C23.6973 67.9135 23.6541 68.3027 23.6541 68.6486V68.8432C22.7892 68.9513 21.6865 68.9946 20.8865 69.3622C19.9351 69.7513 19.3081 70.5946 19.3081 71.7622C19.3081 73.2973 20.2595 74.054 21.4703 74.054C22.4865 74.054 23.0919 73.8162 23.8703 72.9946C24.1081 73.3838 24.2162 73.5784 24.6919 73.9892C24.8 74.0324 24.973 74.0324 25.0378 73.9459C25.3189 73.7081 25.8595 73.2324 26.1838 72.8865C26.3135 72.7567 26.2919 72.6054 26.2054 72.4973ZM23.2865 71.9351C23.0487 72.3243 22.7027 72.6054 22.2703 72.6054C21.7081 72.6054 21.3622 72.173 21.3622 71.5459C21.3622 70.2919 22.4649 70.0973 23.5243 70.0973V70.4216H23.5676C23.5676 70.9622 23.5676 71.4162 23.2865 71.9351Z" fill="#333F48"/>
<path d="M7.00543 72.5621C6.72435 72.2162 6.44327 71.8919 6.44327 71.2216V68.9297C6.44327 67.9351 6.52976 67.0702 5.81624 66.4C5.25408 65.8811 4.32435 65.6865 3.61084 65.6865C2.22706 65.6865 0.64868 66.2054 0.345977 67.9351C0.345977 68.1297 0.454083 68.2162 0.583813 68.2594L2.03246 68.3459C2.14057 68.3459 2.22706 68.1946 2.2703 68.0648C2.37841 67.4811 2.89733 67.2 3.45949 67.2C3.78381 67.2 4.08652 67.3081 4.28111 67.5892C4.51895 67.9135 4.4757 68.3027 4.4757 68.6486V68.8432C3.61084 68.9513 2.50814 68.9946 1.70814 69.3621C0.756785 69.7513 0.129761 70.5946 0.129761 71.7621C0.129761 73.2973 1.08111 74.054 2.29192 74.054C3.30814 74.054 3.91354 73.8162 4.69192 72.9946C4.92976 73.3838 5.03787 73.5784 5.51354 73.9892C5.62165 74.0324 5.79463 74.0324 5.85949 73.9459C6.14057 73.7081 6.68111 73.2324 6.96219 72.9513C7.11354 72.8432 7.0703 72.6919 7.00543 72.5621ZM4.12976 71.9351C3.89192 72.3243 3.54597 72.6054 3.11354 72.6054C2.55138 72.6054 2.20543 72.173 2.20543 71.5459C2.20543 70.2919 3.30814 70.0973 4.3676 70.0973V70.4216H4.41084C4.38922 70.9621 4.38922 71.4162 4.12976 71.9351Z" fill="#333F48"/>
<path d="M62.7244 66.1406C63.0054 66.1406 63.2433 66.0325 63.4379 65.8162C63.6325 65.6216 63.7622 65.3838 63.7622 65.1027C63.7622 64.8216 63.6541 64.5838 63.4379 64.3892C63.2433 64.1946 63.0054 64.0649 62.7244 64.0649C62.4433 64.0649 62.2054 64.173 62.0108 64.3892C61.8163 64.5838 61.6865 64.8216 61.6865 65.1027C61.6865 65.3838 61.7946 65.6216 62.0108 65.8162C62.2054 66.0541 62.4433 66.1406 62.7244 66.1406Z" fill="#333F48"/>
<path d="M60.3892 66.1406C60.6703 66.1406 60.9081 66.0325 61.1027 65.8162C61.2973 65.6216 61.4271 65.3838 61.4271 65.1027C61.4271 64.8216 61.3189 64.5838 61.1027 64.3892C60.9081 64.1946 60.6703 64.0649 60.3892 64.0649C60.1081 64.0649 59.8703 64.173 59.6757 64.3892C59.4811 64.5838 59.3514 64.8216 59.3514 65.1027C59.3514 65.3838 59.4595 65.6216 59.6757 65.8162C59.8919 66.0541 60.1081 66.1406 60.3892 66.1406Z" fill="#333F48"/>
<path d="M67.1784 72.4108H58.573C58.0109 72.4108 57.5568 72.4108 57.146 72.3676C56.8 72.3243 56.519 72.2594 56.2811 72.173C56.0865 72.0649 55.9352 71.8919 55.8487 71.6973C55.7622 71.5027 55.7406 71.1784 55.7406 70.8324V68.4973H54.119V71.373C54.119 71.8486 54.2054 72.2811 54.3136 72.6054C54.4217 72.9513 54.6595 73.2324 54.9406 73.427C55.2217 73.6216 55.6109 73.773 56.0865 73.9027C56.5622 73.9892 57.146 74.054 57.8163 74.054H68.7784V67.0054H67.1568L67.1784 72.4108Z" fill="#333F48"/>
<path d="M75.2217 65.5567C75.1352 65.6649 75.0703 65.7513 74.9838 65.9027C74.8973 66.0108 74.8325 66.1838 74.7892 66.3351C74.7027 66.4865 74.6811 66.6594 74.6811 66.8108V66.854L74.7243 66.8973C75.3946 67.2216 76.0216 67.5676 76.6487 67.9567C77.2757 68.3459 77.8379 68.7351 78.3135 69.1892C78.7892 69.5784 79.1784 70.0108 79.4595 70.4216C79.7406 70.8108 79.8919 71.1351 79.8919 71.4378C79.8919 71.8703 79.7838 72.1081 79.5027 72.2595C79.2217 72.4108 78.8757 72.4973 78.4433 72.4973H73.8595C73.3406 72.4973 73.0379 72.4108 72.8649 72.2162C72.7135 72.0216 72.6271 71.654 72.6271 71.2V61.1892H71.0054V71.6108C71.0054 72.0865 71.0919 72.5189 71.2 72.8432C71.3081 73.1676 71.5244 73.427 71.7622 73.6216C72 73.8162 72.2811 73.9676 72.5838 74.054C72.9081 74.1405 73.2541 74.1622 73.6433 74.1622H78.3784C79.0054 74.1622 79.5243 74.0757 79.9135 73.8811C80.3027 73.7297 80.6271 73.4919 80.8649 73.254C81.1027 72.973 81.2541 72.6919 81.3406 72.3892C81.4271 72.0649 81.4487 71.8054 81.4487 71.5676C81.4487 71.2216 81.3622 70.8108 81.2108 70.3784C81.0595 69.9892 80.7784 69.5567 80.3892 69.1243C80.0433 68.6919 79.5243 68.2162 78.9406 67.7838C78.3784 67.3513 77.7081 66.8757 76.9298 66.4L82.0973 64.1081V62.4865L75.3946 65.4486C75.3514 65.3622 75.3081 65.427 75.2217 65.5567Z" fill="#333F48"/>
<path d="M95.2649 65.0811C95.546 65.0811 95.7838 64.973 95.9784 64.7567C96.173 64.5622 96.3027 64.3243 96.3027 64.0432C96.3027 63.7622 96.1946 63.5243 95.9784 63.3297C95.7838 63.1351 95.546 63.0054 95.2649 63.0054C94.9838 63.0054 94.746 63.1135 94.5514 63.3297C94.3568 63.5243 94.2271 63.7622 94.2271 64.0432C94.2271 64.3243 94.3352 64.5622 94.5514 64.7567C94.746 64.9946 94.9838 65.0811 95.2649 65.0811Z" fill="#333F48"/>
<path d="M96.4757 62.9405C96.7568 62.9405 96.9946 62.8324 97.1892 62.6162C97.3838 62.4216 97.5135 62.1838 97.5135 61.9027C97.5135 61.6216 97.4054 61.3838 97.1892 61.1892C96.9946 60.9946 96.7568 60.8649 96.4757 60.8649C96.1946 60.8649 95.9568 60.973 95.7622 61.1892C95.5676 61.3838 95.4379 61.6216 95.4379 61.9027C95.4379 62.1838 95.546 62.4216 95.7622 62.6162C95.9352 62.8324 96.1946 62.9405 96.4757 62.9405Z" fill="#333F48"/>
<path d="M96.5622 64.0432C96.5622 64.3243 96.6703 64.5622 96.8865 64.7567C97.0811 64.9513 97.319 65.0811 97.6 65.0811C97.8811 65.0811 98.119 64.973 98.3136 64.7567C98.5081 64.5622 98.6379 64.3243 98.6379 64.0432C98.6379 63.7622 98.5298 63.5243 98.3136 63.3297C98.119 63.1351 97.8811 63.0054 97.6 63.0054C97.319 63.0054 97.0811 63.1135 96.8865 63.3297C96.6703 63.5459 96.5622 63.7838 96.5622 64.0432Z" fill="#333F48"/>
<path d="M100.259 72.4108H98.8324C98.5081 72.4108 98.2703 72.3676 98.0757 72.3027C97.8811 72.2162 97.7297 72.1081 97.6433 71.9568C97.5351 71.8054 97.4487 71.6108 97.4054 71.373C97.3622 71.1351 97.3189 70.8541 97.3189 70.5946V67.9135H95.6973V71.1784C95.6973 71.4595 95.6541 71.6973 95.6108 71.8487C95.5243 72 95.4595 72.1297 95.3298 72.1946C95.2216 72.2811 95.0487 72.3027 94.8541 72.3459C94.6595 72.3892 94.4216 72.3892 94.1838 72.3892C93.7946 72.3892 93.4703 72.346 93.2325 72.2811C92.9946 72.1946 92.8433 72.0865 92.7135 71.9351C92.5838 71.7838 92.5189 71.5892 92.4757 71.3514C92.4325 71.1135 92.4325 70.8324 92.4325 70.573V67.9351H90.8108V71.2433C90.8108 71.5243 90.7676 71.7622 90.7027 71.9135C90.6162 72.0649 90.5514 72.1946 90.3784 72.2595C90.227 72.346 90.0324 72.4108 89.7514 72.4108C89.4703 72.4541 88.1297 72.4541 88.1297 72.4541C87.5676 72.4541 87.1784 72.3027 86.9838 71.9784C86.7892 71.6324 86.6595 71.1568 86.6595 70.5514V67.9135H85.0379V72.8C85.0379 73.427 85.0379 73.946 84.9946 74.3784C84.9514 74.8108 84.8865 75.1568 84.7135 75.3946C84.5622 75.6757 84.3243 75.8703 84 75.9784C83.6757 76.0865 83.2216 76.173 82.6595 76.173H82.573V77.8378H82.6595C83.4379 77.8378 84.1081 77.7514 84.6271 77.6C85.146 77.4487 85.5351 77.1676 85.8595 76.7784C86.1406 76.4324 86.3352 75.9135 86.4433 75.3297C86.5297 74.7676 86.5946 74.1405 86.5946 73.4054C86.7027 73.5568 86.8757 73.7297 87.0703 73.8378C87.3514 74.0324 87.6973 74.1189 88.0865 74.1189C88.0865 74.1189 89.6649 74.1189 90.0541 74.0757C90.4433 74.0324 90.7676 73.9892 91.0487 73.8811C91.3297 73.7946 91.5243 73.6433 91.7189 73.4919C91.827 73.3838 91.9568 73.2108 92.0649 73.0162C92.1081 73.1243 92.173 73.2108 92.2595 73.3406C92.3676 73.4919 92.5406 73.6216 92.6919 73.7297C92.8865 73.8378 93.1243 73.9243 93.4054 74.0108C93.6865 74.0973 94.0325 74.1189 94.4216 74.1189C95.0919 74.1189 95.6541 74.0324 96.0865 73.8811C96.5189 73.773 96.8433 73.4919 97.0811 73.0595C97.1892 73.3406 97.3622 73.5784 97.6 73.773C97.8811 74.0108 98.2703 74.1189 98.7892 74.1189H101.859V67.0703H100.173V72.4108H100.259Z" fill="#333F48"/>
<path d="M119.265 66.4865C118.941 66.4 118.595 66.3784 118.205 66.3784C117.535 66.3784 116.951 66.4865 116.432 66.7243C115.914 66.9622 115.481 67.2865 115.178 67.6757C114.854 68.0649 114.595 68.4973 114.422 68.973C114.27 69.4487 114.184 69.9243 114.184 70.4C114.184 70.7892 114.27 71.1568 114.378 71.4595C114.487 71.7622 114.703 72.0432 114.941 72.2811C115.178 72.5189 115.46 72.7568 115.719 72.9514C116.043 73.146 116.346 73.2973 116.714 73.5135C117.189 73.7514 117.535 73.9892 117.708 74.1406C117.86 74.2919 117.946 74.5297 117.946 74.7676C117.946 75.0487 117.838 75.3297 117.6 75.546C117.362 75.7622 117.016 75.9784 116.584 76.1297C116.151 76.2811 115.632 76.4108 115.092 76.5189C114.53 76.6054 113.946 76.627 113.319 76.627C112.454 76.627 111.741 76.5405 111.2 76.3892C110.659 76.2378 110.184 76.0433 109.816 75.7622C109.47 75.4811 109.232 75.1784 109.103 74.7676C108.951 74.3784 108.865 73.9892 108.865 73.5135V71.0703H107.243V73.8378C107.243 74.4649 107.351 75.0703 107.568 75.6108C107.762 76.173 108.13 76.627 108.584 77.0378C109.038 77.4487 109.687 77.7514 110.487 77.9892C111.265 78.227 112.216 78.3135 113.319 78.3135C114.465 78.3135 115.416 78.2054 116.238 77.9892C117.016 77.7514 117.687 77.4703 118.205 77.1243C118.724 76.7784 119.114 76.346 119.308 75.8703C119.546 75.3946 119.654 74.8757 119.654 74.3784C119.654 74.1405 119.611 73.946 119.546 73.7514C119.46 73.5568 119.351 73.3622 119.2 73.1892C119.049 72.9946 118.811 72.8433 118.53 72.627C118.249 72.4324 117.903 72.2378 117.514 72C117.276 71.8919 117.038 71.7622 116.843 71.6108C116.649 71.5027 116.497 71.373 116.324 71.2216C116.173 71.1135 116.043 70.9406 115.978 70.746C115.892 70.5946 115.87 70.4 115.87 70.1622C115.87 69.9243 115.914 69.6865 116.022 69.4487C116.108 69.2108 116.259 68.973 116.454 68.7784C116.649 68.5838 116.887 68.4324 117.168 68.3027C117.449 68.173 117.795 68.1081 118.184 68.1081C118.465 68.1081 118.746 68.1514 119.005 68.1946C119.287 68.2379 119.568 68.3027 119.784 68.3459L119.892 68.3892V66.7027L119.849 66.6595C119.784 66.6595 119.697 66.6162 119.265 66.4865Z" fill="#333F48"/>
<path d="M136.346 68.4973C135.914 67.9351 135.351 67.5027 134.681 67.2C134.011 66.8757 133.233 66.7243 132.324 66.7243C131.849 66.7243 131.416 66.7676 131.027 66.8324C130.638 66.9189 130.314 66.9838 130.076 67.0703H130.033V68.6486L130.141 68.6054C130.378 68.5189 130.703 68.4541 131.092 68.4108C132.043 68.2595 132.908 68.3027 133.665 68.5189C134.097 68.6703 134.487 68.9081 134.854 69.2324C135.2 69.5568 135.438 69.9892 135.633 70.4865C135.827 71.0054 135.914 71.5892 135.957 72.3027H128.865C128.714 72.3027 128.541 72.2595 128.433 72.1946C128.281 72.1081 128.151 72 128 71.8054C127.849 71.654 127.676 71.4162 127.481 71.1351C127.287 70.854 127.092 70.5081 126.854 70.1189L124.649 66.4865L123.114 67.4378L125.038 70.3135C125.189 70.5946 125.362 70.8324 125.47 71.027C125.578 71.2216 125.622 71.4595 125.622 71.6541C125.622 71.8486 125.514 72 125.276 72.1297C124.995 72.2378 124.649 72.3243 124.173 72.3243H120.908V73.9892H123.697C123.978 73.9892 124.281 73.9892 124.562 73.9459C124.843 73.9027 125.146 73.8595 125.384 73.7946C125.665 73.7081 125.903 73.5567 126.097 73.3622C126.292 73.2108 126.443 72.973 126.573 72.6919C126.897 73.1676 127.2 73.4703 127.524 73.6865C127.87 73.8811 128.303 74.0108 128.778 74.0108H137.622V72.627C137.622 71.8486 137.514 71.0919 137.297 70.3784C137.103 69.6865 136.778 69.0595 136.346 68.4973Z" fill="#333F48"/>
<path d="M141.081 61.1027H139.459V74.0757H141.081V61.1027Z" fill="#333F48"/>
<path d="M75.4162 37.0378C80.3459 37.0378 84.3676 33.0162 84.3676 28.0865C84.3676 23.1568 80.3459 19.1351 75.4162 19.1351C70.4865 19.1351 66.4649 23.1568 66.4649 28.0865C66.4649 33.0162 70.4865 37.0378 75.4162 37.0378ZM140.8 11.1568V33.7297C140.8 40.8649 134.53 46.5946 127.2 45.6432C124.908 45.3622 122.854 44.3892 121.168 42.9622C119.07 44.6919 116.389 45.7513 113.47 45.7513H111.308H93.0595V52.3027C93.0595 53.8378 91.8054 55.0919 90.227 55.0919H84.3892C84.3892 55.0919 84.3459 55.0919 84.3459 55.0486V43.2865C81.7081 44.8216 78.6595 45.7297 75.3946 45.7297C64.5189 45.7297 55.9135 35.827 58.1189 24.5622C59.4595 17.7081 64.973 12.173 71.8486 10.8324C83.0919 8.62703 92.9946 17.1892 93.0162 28.0649V37.2541H101.968C101.622 36.1513 101.449 34.9622 101.449 33.7514V14.4865C101.449 12.6703 102.941 11.1784 104.757 11.1784H110.162V33.7297C110.162 35.6973 111.935 37.2757 113.989 36.973C115.611 36.6919 116.714 35.2 116.714 33.5351V33.2973V11.1568H125.514V33.5568C125.514 35.1784 126.616 36.7135 128.238 36.9513C130.292 37.2973 132.065 35.6973 132.065 33.7081V11.1568H140.8ZM36.8432 37.0378C41.773 37.0378 45.7946 33.0162 45.7946 28.0865C45.7946 23.1568 41.773 19.1351 36.8432 19.1351C31.9135 19.1351 27.8919 23.1568 27.8919 28.0865C27.9351 33.0162 31.9135 37.0378 36.8432 37.0378ZM36.8432 10.4649C46.5946 10.4649 54.4649 18.4 54.4649 28.0865C54.4649 37.8378 46.5297 45.7081 36.8432 45.7081H14.2486V45.6649C6.24865 45.1027 0.0864868 38.3351 0.0864868 30.4V11.1568C0.0864868 11.1568 0.0864895 11.1135 0.129733 11.1135H5.96757C7.54595 11.1135 8.8 12.3676 8.8 13.9027V30.5513C8.8 33.9892 11.3946 36.9297 14.8757 37.2108H21.773C20.1514 34.573 19.2 31.4595 19.2 28.1081C19.2216 18.3784 27.1568 10.4649 36.8432 10.4649ZM29.5568 8.25946C31.8054 8.25946 33.6649 6.4 33.6649 4.15135C33.6649 1.9027 31.8487 0.0432434 29.5568 0.0432434C27.3081 0.0432434 25.4487 1.9027 25.4487 4.15135C25.4487 6.44324 27.3081 8.25946 29.5568 8.25946ZM44.1514 8.25946C46.4 8.25946 48.2595 6.4 48.2595 4.15135C48.2595 1.9027 46.4 0.0432434 44.1514 0.0432434C41.9027 0.0432434 40.0432 1.9027 40.0432 4.15135C40.0432 6.44324 41.9027 8.25946 44.1514 8.25946Z" fill="#4580C2"/>
</g>
<defs>
<clipPath id="clip0_5_1584">
<rect width="141.189" height="80" fill="white"/>
</clipPath>
</defs>
</svg>
